<?xml version="1.0" standalone="no"?>
<!DOCTYPE svg PUBLIC "-//W3C//DTD SVG 20010904//EN"
 "http://www.w3.org/TR/2001/REC-SVG-20010904/DTD/svg10.dtd">
<svg version="1.0" xmlns="http://www.w3.org/2000/svg"
 width="300.000000pt" height="273.000000pt" viewBox="0 0 300.000000 273.000000"
 preserveAspectRatio="xMidYMid meet">
<metadata>
Created by potrace 1.10, written by Peter Selinger 2001-2011
</metadata>
<g transform="translate(0.000000,273.000000) scale(0.050000,-0.050000)"
fill="#000000" stroke="none">
<path d="M3226 4489 c-46 -39 -118 -127 -158 -195 -41 -68 -87 -139 -102 -157
-15 -18 -60 -94 -100 -170 -39 -75 -88 -158 -109 -185 -20 -26 -37 -56 -37
-67 0 -10 -49 -94 -110 -187 -129 -198 -151 -204 -450 -121 -145 40 -762 334
-829 396 -35 32 -150 18 -191 -23 -119 -119 -29 -343 248 -610 113 -110 226
-236 250 -280 24 -44 84 -129 133 -190 50 -60 114 -144 142 -185 l52 -75 -35
-115 c-67 -213 -146 -387 -297 -652 -145 -254 -253 -499 -253 -574 0 -144 291
-132 520 21 239 159 295 201 430 321 77 68 176 146 220 174 44 27 126 94 182
148 87 85 110 97 155 86 71 -18 219 -225 259 -362 40 -134 59 -168 185 -337
243 -324 290 -352 410 -252 l69 58 4 327 c5 353 -11 488 -71 621 -43 94 -75
327 -54 393 8 25 67 68 149 109 360 180 945 723 990 918 27 118 -67 138 -318
67 -344 -99 -480 -131 -547 -131 -86 0 -311 71 -339 106 -66 86 -140 831 -96
968 9 28 0 72 -26 122 -65 128 -150 138 -276 33z m205 -44 c9 -19 17 -156 19
-305 7 -450 64 -795 141 -847 174 -118 380 -122 755 -16 496 140 518 117 208
-222 -182 -200 -535 -477 -766 -601 -115 -62 -159 -97 -168 -133 -20 -84 18
-336 67 -456 54 -129 92 -752 53 -855 -42 -110 -115 -110 -216 1 -148 163
-275 359 -314 483 -112 360 -345 519 -501 341 -44 -48 -128 -122 -189 -164
-60 -42 -147 -111 -192 -155 -226 -217 -592 -440 -743 -452 -135 -11 -148 18
-85 195 49 137 59 157 204 401 110 186 236 464 297 653 l45 143 -130 167 c-71
92 -163 217 -204 277 -84 122 -148 194 -333 370 -189 181 -259 364 -176 463
25 31 119 4 237 -69 49 -30 139 -76 199 -102 60 -26 145 -70 190 -98 88 -56
178 -87 417 -146 289 -71 338 -28 658 581 32 60 69 123 83 140 15 17 65 94
112 171 150 245 285 341 332 235z"/>
<path d="M2705 3205 c-143 -111 12 -312 174 -226 44 24 90 130 74 172 -28 72
-181 105 -248 54z m135 -65 c0 -9 -27 -19 -60 -24 -67 -10 -83 29 -25 61 34
20 85 -3 85 -37z"/>
<path d="M3270 3136 c-84 -47 -96 -145 -25 -211 72 -66 153 -67 214 -1 111
119 -44 294 -189 212z m130 -64 c0 -29 -115 -56 -131 -30 -12 20 50 57 96 57
19 1 35 -11 35 -27z"/>
<path d="M3070 2680 c-39 -75 -124 -85 -134 -15 -6 46 -96 79 -96 35 0 -153
173 -209 278 -89 73 83 73 82 23 109 -34 18 -44 12 -71 -40z"/>
</g>
</svg>
